<svg width="611" height="490" viewBox="0 0 611 490" fill="none" xmlns="http://www.w3.org/2000/svg">
<g clip-path="url(#clip0_270_106)">
<path d="M15.1798 488.381C15.1798 489.041 15.7098 489.571 16.3698 489.571H609.63C610.29 489.571 610.82 489.041 610.82 488.381C610.82 487.721 610.29 487.191 609.63 487.191H16.3698C15.7098 487.191 15.1798 487.721 15.1798 488.381Z" fill="#040422"/>
<path d="M322.818 370.945C321.189 380.819 312.597 388.375 302.269 388.375C291.941 388.375 283.349 380.819 281.72 370.945H229.146V484.88H375.392V370.945H322.818Z" fill="#C5C7B2"/>
<path d="M246.152 484.455H231.697V487.006H246.152V484.455Z" fill="#B6B3C5"/>
<path d="M374.116 484.881H359.662V487.431H374.116V484.881Z" fill="#B6B3C5"/>
<path d="M375.817 475.854H229.571V479.82H375.817V475.854Z" fill="#392328"/>
<path d="M596.385 373.921H8.15307C3.65742 373.921 0 370.263 0 365.768V30.0645C0 25.5691 3.65742 21.9114 8.15307 21.9114H596.385C600.88 21.9114 604.538 25.5691 604.538 30.0645V365.768C604.538 370.263 600.88 373.921 596.385 373.921Z" fill="#040422"/>
<path d="M590.509 36.366H14.8796V361.167H590.509V36.366Z" fill="#F5EFF1"/>
<path d="M522.121 161.103H490.712C487.983 161.103 485.762 158.882 485.762 156.153C485.762 153.423 487.983 151.203 490.712 151.203H522.121C524.85 151.203 527.071 153.423 527.071 156.153C527.071 158.882 524.85 161.103 522.121 161.103Z" fill="#D1D1D2"/>
<path d="M558.242 161.103H543.585C540.855 161.103 538.635 158.882 538.635 156.153C538.635 153.423 540.855 151.203 543.585 151.203H558.242C560.972 151.203 563.192 153.423 563.192 156.153C563.192 158.882 560.972 161.103 558.242 161.103Z" fill="#D1D1D2"/>
<path d="M207.647 164.883H112.043C107.162 164.883 103.192 160.912 103.192 156.032C103.192 151.152 107.162 147.181 112.043 147.181H207.647C212.527 147.181 216.498 151.152 216.498 156.032C216.498 160.912 212.527 164.883 207.647 164.883Z" fill="#352026"/>
<path d="M155.813 188.496H109.739C106.764 188.496 104.344 186.075 104.344 183.101C104.344 180.126 106.764 177.705 109.739 177.705H155.813C158.788 177.705 161.209 180.126 161.209 183.101C161.209 186.075 158.788 188.496 155.813 188.496Z" fill="#C5C7B2"/>
<path d="M409.797 209.805H108.587C105.612 209.805 103.192 207.385 103.192 204.41C103.192 201.435 105.612 199.014 108.587 199.014H409.797C412.772 199.014 415.192 201.435 415.192 204.41C415.192 207.385 412.772 209.805 409.797 209.805Z" fill="#C5C7B2"/>
<path d="M383.88 224.203H108.587C105.612 224.203 103.192 221.783 103.192 218.808C103.192 215.833 105.612 213.413 108.587 213.413H383.88C386.855 213.413 389.275 215.833 389.275 218.808C389.275 221.783 386.855 224.203 383.88 224.203Z" fill="#C5C7B2"/>
<path d="M557.342 432.037L543.525 446.546L528.799 432.932L542.616 418.424L557.342 432.037Z" fill="#ED9DA0"/>
<path d="M568.378 446.897L539.008 477.736C536.498 480.372 533.363 482.454 529.941 483.758L521.753 486.879C520.06 487.525 518.111 487.151 516.787 485.927C515.234 484.492 514.841 482.193 515.831 480.336L523.707 465.561L532.112 435.599L532.203 435.656C534.49 437.064 537.958 439.176 538.205 439.266C542.557 439.42 545.673 438.325 547.466 436.013C550.595 431.98 548.61 425.542 548.59 425.477L548.574 425.428L548.614 425.394C549.526 424.615 550.486 424.304 551.469 424.468C553.554 424.816 555.046 427.159 555.265 427.52C557.222 427.437 563.231 432.144 563.715 432.525C566.666 432.517 568.828 433.217 570.143 434.605C571.293 435.818 571.794 437.541 571.632 439.724C571.437 442.351 570.281 444.899 568.378 446.897Z" fill="#040422"/>
<path d="M541.391 448.741H521.198V468.636H541.391V448.741Z" fill="#ED9DA0"/>
<path d="M537.944 486.733H495.021C491.353 486.733 487.666 485.905 484.359 484.339L476.446 480.591C474.81 479.817 473.753 478.16 473.753 476.372C473.753 474.274 475.186 472.419 477.238 471.859L493.563 467.409L521.491 452.946L521.511 453.05C522.034 455.656 522.843 459.593 522.946 459.832C525.81 463.065 528.752 464.554 531.691 464.261C536.816 463.749 540.224 457.917 540.257 457.859L540.283 457.814L540.336 457.819C541.536 457.941 542.424 458.418 542.974 459.236C544.144 460.973 543.431 463.649 543.313 464.052C544.713 465.402 545.342 472.94 545.39 473.549C547.415 475.663 548.377 477.696 548.25 479.59C548.138 481.247 547.206 482.785 545.479 484.162C543.401 485.82 540.725 486.733 537.944 486.733Z" fill="#040422"/>
<path d="M543.788 198.181L472.235 198.216L448.384 347.007L519.937 432.051L543.788 410.79L487.241 347.007L543.788 198.181Z" fill="#100A0B"/>
<path d="M501.496 220.115L543.788 198.181V453.312L519.937 453.967L501.496 220.115Z" fill="#100A0B"/>
<path d="M459.133 257.848L459.637 234.623L446.077 234.329L445.573 257.554C443.043 259.902 441.373 263.552 441.283 267.689C441.126 274.929 445.856 280.903 451.847 281.033C457.838 281.163 462.823 275.399 462.98 268.16C463.069 264.022 461.559 260.304 459.133 257.848Z" fill="#ED9DA0"/>
<path d="M525.384 40.0266C525.384 25.6464 513.727 13.989 499.347 13.989C484.967 13.989 473.309 25.6464 473.309 40.0266C473.309 51.6889 480.977 61.5592 491.546 64.874L496.579 98.1397L522.24 76.7561C522.24 76.7561 516.696 69.6952 513.723 61.7336C520.75 57.0706 525.384 49.0913 525.384 40.0266Z" fill="#ED9DA0"/>
<path d="M511.856 62.0221C511.856 62.0221 515.314 48.7654 509.66 42.67C504.019 36.5884 503.291 46.0511 503.291 46.0511L499.22 45.1662C499.22 45.1662 499.928 35.9639 491.965 34.3711L497.097 23.3991C497.097 23.3991 477.448 27.2141 476.907 25.3111C472.646 10.3374 513.297 -2.45371 524.527 20.3906C541.993 55.921 511.856 62.0221 511.856 62.0221Z" fill="#100A0B"/>
<path d="M488.858 85.2183C469.955 88.912 455.766 104.651 454.045 123.835L442.279 255.03H462.927L488.858 85.2183Z" fill="#352026"/>
<path d="M469.334 189.746L466.119 226.789L553.408 201.116L542.772 174.342L562.578 128.863L522.148 70.9145L489.873 73.115L477.403 89.2526" fill="#352026"/>
<path d="M540.519 224.925L552.694 205.141L541.142 198.032L528.967 217.817C525.597 218.564 522.311 220.869 520.142 224.393C516.347 230.561 517.408 238.106 522.512 241.247C527.616 244.387 534.83 241.934 538.625 235.767C540.794 232.242 541.37 228.271 540.519 224.925Z" fill="#ED9DA0"/>
<path d="M515.547 71.648L522.585 71.356L534.618 80.4503C548.877 82.8819 553.012 83.5636 557.381 92.9824C559.217 96.9401 560.434 101.156 561.115 105.466L571.295 169.941L545.706 231.557L528.75 212.485L546.877 164.312L543.865 152.789" fill="#352026"/>
</g>
<defs>
<clipPath id="clip0_270_106">
<rect width="610.82" height="489.571" fill="white"/>
</clipPath>
</defs>
</svg>
