<svg width="48" height="48" viewBox="0 0 48 48" fill="none" xmlns="http://www.w3.org/2000/svg">
<path d="M43.5 1.12499H4.5C3.61512 1.11598 2.7628 1.45838 2.13007 2.07705C1.49734 2.69572 1.13588 3.54013 1.125 4.42499V43.5825C1.13785 44.466 1.50017 45.3085 2.13269 45.9256C2.7652 46.5426 3.6164 46.884 4.5 46.875H43.5C44.3849 46.882 45.2367 46.5384 45.8691 45.9194C46.5015 45.3003 46.8631 44.4561 46.875 43.5712V4.41374C46.8592 3.53147 46.4958 2.69109 45.8639 2.07526C45.2319 1.45943 44.3824 1.11793 43.5 1.12499Z" fill="#0E0F0B"/>
<path d="M7.89755 18.2737H14.6888V40.125H7.89755V18.2737ZM11.295 7.39874C12.074 7.39874 12.8354 7.62977 13.483 8.06259C14.1306 8.49542 14.6353 9.11059 14.9332 9.83029C15.2311 10.55 15.3088 11.3419 15.1566 12.1058C15.0044 12.8697 14.629 13.5713 14.0779 14.1218C13.5269 14.6723 12.825 15.047 12.0609 15.1985C11.2969 15.35 10.505 15.2715 9.78563 14.9729C9.06621 14.6743 8.45152 14.1691 8.01931 13.5211C7.5871 12.8731 7.3568 12.1114 7.35755 11.3325C7.35854 10.2889 7.77382 9.2883 8.51214 8.55068C9.25045 7.81307 10.2514 7.39874 11.295 7.39874ZM18.9488 18.2737H25.4588V21.2737H25.5488C26.4563 19.5562 28.6688 17.745 31.9725 17.745C38.85 17.73 40.125 22.2562 40.125 28.125V40.125H33.3338V29.4937C33.3338 26.9625 33.2888 23.7037 29.805 23.7037C26.3213 23.7037 25.7288 26.4637 25.7288 29.3287V40.125H18.9488V18.2737Z" fill="#C5C7B2"/>
</svg>
